<svg width="283" height="90" viewBox="0 0 283 90" fill="none" xmlns="http://www.w3.org/2000/svg">
<g filter="url(#filter0_d_520_53)">
<path d="M12.7359 12.9231C13.4195 7.44272 18.4508 3 23.9736 3H269.974C274.392 3 277.53 6.55418 276.983 10.9385L269.309 72.4617C268.626 77.9421 263.595 82.3848 258.072 82.3848H12.0717C7.65337 82.3848 4.51499 78.8306 5.06186 74.4463L12.7359 12.9231Z" fill="#C52A2E"/>
<path d="M23.7261 4.98462H269.726C273.04 4.98462 275.394 7.65025 274.983 10.9385L267.309 72.4617C266.763 76.846 262.737 80.4002 258.319 80.4002H12.3192C9.00551 80.4002 6.65171 77.7346 7.06186 74.4463L14.7359 12.9231L14.7976 12.5142C15.5115 8.45537 19.1967 5.20125 23.3126 4.99528L23.7261 4.98462Z" stroke="url(#paint0_linear_520_53)" stroke-width="4"/>
</g>
<defs>
<filter id="filter0_d_520_53" x="-0.928345" y="0" width="283.902" height="89.3848" filterUnits="userSpaceOnUse" color-interpolation-filters="sRGB">
<feFlood flood-opacity="0" result="BackgroundImageFix"/>
<feColorMatrix in="SourceAlpha" type="matrix" values="0 0 0 0 0 0 0 0 0 0 0 0 0 0 0 0 0 0 127 0" result="hardAlpha"/>
<feOffset dy="2"/>
<feGaussianBlur stdDeviation="2.5"/>
<feComposite in2="hardAlpha" operator="out"/>
<feColorMatrix type="matrix" values="0 0 0 0 0 0 0 0 0 0 0 0 0 0 0 0 0 0 0.4 0"/>
<feBlend mode="normal" in2="BackgroundImageFix" result="effect1_dropShadow_520_53"/>
<feBlend mode="normal" in="SourceGraphic" in2="effect1_dropShadow_520_53" result="shape"/>
</filter>
<linearGradient id="paint0_linear_520_53" x1="117.596" y1="-176" x2="195.173" y2="157.324" gradientUnits="userSpaceOnUse">
<stop offset="0.455915" stop-color="white"/>
<stop offset="1" stop-color="white" stop-opacity="0"/>
</linearGradient>
</defs>
</svg>
